<svg xmlns="http://www.w3.org/2000/svg" xmlns:xlink="http://www.w3.org/1999/xlink" version="1.1" x="1px" y="1px" viewBox="0 0 90 90" style="enable-background:new 0 0 100 100;" xml:space="preserve"><path d="M89,15.5610352c0.5527344,0,1-0.4477539,1-1s-0.4472656-1-1-1H35.1054688V11c0-0.5522461-0.4472656-1-1-1H11  c-0.5527344,0-1,0.4477539-1,1v76.0083008c0,0.2832031,0.1201172,0.5532227,0.3300781,0.7426758  c0.0556641,0.0488281,5.3291016,4.6787109,12.1845703,0.4726562c0.9755859,0.6567383,3.0195312,1.7641602,5.7109375,1.7636719  c1.8798828,0,4.0751953-0.5405273,6.4423828-2.1523438c0.2734375-0.1865234,0.4375-0.4956055,0.4375-0.8266602v-0.5693359H89  c0.5527344,0,1-0.4477539,1-1s-0.4472656-1-1-1h-1.6416016V15.5610352H89z M85.3583984,73.7913208  c-2.7276611-0.1781006-5.2510986-1.3446655-7.1660156-3.3533325c-0.1884766-0.1977539-0.4501953-0.3100586-0.7236328-0.3100586  s-0.5351562,0.1118164-0.7236328,0.3100586c-2.0849609,2.1855469-4.8876953,3.3896484-7.8916016,3.3896484  s-5.8066406-1.2041016-7.8916016-3.3896484c-0.3769531-0.3964844-1.0703125-0.3955078-1.4472656,0  c-2.0839844,2.1860352-4.8857422,3.3896484-7.890625,3.3896484c-3.0039062,0-5.8066406-1.2041016-7.8916016-3.3896484  c-0.3769531-0.3964844-1.0703125-0.3955078-1.4472656,0c-1.9180908,2.0120239-4.4467773,3.178894-7.1796875,3.3540039V61.4858398  c2.9512939-0.1593628,5.7073364-1.2930298,7.9033203-3.2734375c2.3740234,2.1391602,5.3964844,3.3056641,8.6152344,3.3056641  c3.2197266,0,6.2421875-1.1665039,8.6142578-3.3056641c2.3740234,2.1391602,5.3964844,3.3056641,8.6152344,3.3056641  s6.2412109-1.1669922,8.6152344-3.3056641c2.192627,1.977356,4.9435425,3.1105957,7.8896484,3.2727661V73.7913208z   M33.1054688,86.4667969c-4.765625,2.9741211-8.4550781,0.8491211-9.5527344,0.0576172V63.5268555c0-0.5522461-0.4472656-1-1-1  s-1,0.4477539-1,1v22.9399414C16.7871094,89.440918,13.0976562,87.315918,12,86.5244141V12h9.5527344v19.84375  c0,0.5522461,0.4472656,1,1,1s1-0.4477539,1-1V12h9.5527344V86.4667969z M35.1054688,84.4389648v-8.6435547  c2.9512939-0.1594238,5.7073364-1.2935181,7.9033203-3.2734375c2.3730469,2.1391602,5.3955078,3.3056641,8.6152344,3.3056641  s6.2421875-1.1669922,8.6142578-3.3056641c2.3730469,2.1391602,5.3955078,3.3056641,8.6152344,3.3056641  s6.2421875-1.1665039,8.6152344-3.3056641c2.192627,1.9768677,4.9435425,3.1105957,7.8896484,3.2727661v8.6442261H35.1054688z   M85.3583984,59.4817505c-2.7269897-0.1781616-5.2511597-1.3447266-7.1660156-3.3533325  c-0.1884766-0.1982422-0.4501953-0.3100586-0.7236328-0.3100586s-0.5351562,0.1118164-0.7236328,0.3095703  c-2.0849609,2.1860352-4.8876953,3.3901367-7.8916016,3.3901367s-5.8066406-1.2041016-7.8916016-3.3901367  c-0.3769531-0.3955078-1.0703125-0.3959961-1.4472656,0.0004883c-2.0839844,2.1860352-4.8867188,3.3896484-7.890625,3.3896484  s-5.8066406-1.2041016-7.8916016-3.3901367c-0.3769531-0.3955078-1.0703125-0.3959961-1.4472656,0.0004883  c-1.9180298,2.0119629-4.4474487,3.178894-7.1796875,3.3540039V15.5610352h50.2529297V59.4817505z"/><path d="M22.5527344,38.5444336c-0.5527344,0-1,0.4477539-1,1v14.5385742c0,0.5522461,0.4472656,1,1,1s1-0.4477539,1-1V39.5444336  C23.5527344,38.9921875,23.1054688,38.5444336,22.5527344,38.5444336z"/><path d="M68.9394531,46.2138672c6.2080078,0,11.2587891-5.050293,11.2587891-11.2583008  c0-6.2075195-5.0507812-11.2578125-11.2587891-11.2578125s-11.2578125,5.050293-11.2578125,11.2578125  C57.6816406,41.1635742,62.7314453,46.2138672,68.9394531,46.2138672z M68.9394531,25.6977539  c5.1054688,0,9.2587891,4.152832,9.2587891,9.2578125s-4.1533203,9.2583008-9.2587891,9.2583008  c-5.1044922,0-9.2578125-4.1533203-9.2578125-9.2583008S63.8349609,25.6977539,68.9394531,25.6977539z"/></svg>